<svg xmlns="http://www.w3.org/2000/svg" viewBox="0 0 256 256" role="img" aria-labelledby="title desc">
  <title>Гранат</title>
  <desc>Простой рисунок граната для награды в букваре.</desc>
  <defs>
    <linearGradient id="body" x1="0" x2="0" y1="0" y2="1">
      <stop offset="0%" stop-color="#d96464"/>
      <stop offset="100%" stop-color="#9f2f45"/>
    </linearGradient>
    <linearGradient id="shine" x1="0" x2="1" y1="0" y2="1">
      <stop offset="0%" stop-color="#fff6f0" stop-opacity="0.9"/>
      <stop offset="100%" stop-color="#fff6f0" stop-opacity="0"/>
    </linearGradient>
  </defs>
  <rect width="256" height="256" fill="none"/>
  <path d="M128 34c7 17 19 24 36 25-4 11-14 21-27 28h-18c-13-7-23-17-27-28 17-1 29-8 36-25Z" fill="#8f6b2e"/>
  <path d="M128 57c-46 0-82 35-82 83 0 52 37 92 82 92s82-40 82-92c0-48-36-83-82-83Z" fill="url(#body)"/>
  <path d="M69 148c6 41 31 70 59 70 29 0 54-29 60-70-15-16-39-27-60-27-20 0-44 11-59 27Z" fill="#b83b4f" opacity="0.45"/>
  <ellipse cx="101" cy="104" rx="24" ry="34" fill="url(#shine)"/>
  <path d="M90 186c13 15 30 24 38 24 9 0 25-9 39-24-11-8-25-13-39-13-13 0-27 5-38 13Z" fill="#7b1631" opacity="0.35"/>
  <circle cx="95" cy="151" r="8" fill="#ffd9d4" opacity="0.35"/>
  <circle cx="160" cy="145" r="10" fill="#7f1734" opacity="0.28"/>
</svg>