<svg xmlns="http://www.w3.org/2000/svg" viewBox="0 0 256 256">
  <rect width="256" height="256" fill="none"/>
  <circle cx="128" cy="146" r="20" fill="#2f3b1f"/>
  <path d="M128 126c-28-38-73-44-88-6 20 12 46 23 69 28-5-18 1-28 19-22Z" fill="#d64545"/>
  <path d="M128 126c28-38 73-44 88-6-20 12-46 23-69 28 5-18-1-28-19-22Z" fill="#cf3a3a"/>
  <path d="M110 146c-32-8-58 5-67 33 28 9 56 7 77-7-11-7-14-16-10-26Z" fill="#e05252"/>
  <path d="M146 146c32-8 58 5 67 33-28 9-56 7-77-7 11-7 14-16 10-26Z" fill="#e05252"/>
  <path d="M124 53h8v44h-8z" fill="#6b8b43"/>
  <path d="M128 84c14-7 30-4 40 8-15 6-30 7-40-8Z" fill="#88a85a"/>
  <path d="M128 84c-14-7-30-4-40 8 15 6 30 7 40-8Z" fill="#88a85a"/>
</svg>