<svg xmlns="http://www.w3.org/2000/svg" viewBox="0 0 256 256">
  <rect width="256" height="256" fill="none"/>
  <path d="M128 70c-14-28-42-38-71-27 14 21 37 39 71 42Z" fill="#79af63"/>
  <path d="M128 70c14-28 42-38 71-27-14 21-37 39-71 42Z" fill="#6ca458"/>
  <path d="M128 86c-39 0-66 27-66 60 0 43 28 70 66 70s66-27 66-70c0-33-27-60-66-60Z" fill="#a72f56"/>
  <path d="M112 106c-12 23-17 57-7 96" stroke="#d86b8d" stroke-width="8" stroke-linecap="round" fill="none" opacity="0.8"/>
  <path d="M128 100c0 28 0 67 0 106" stroke="#d86b8d" stroke-width="8" stroke-linecap="round" fill="none" opacity="0.8"/>
  <path d="M144 106c12 23 17 57 7 96" stroke="#d86b8d" stroke-width="8" stroke-linecap="round" fill="none" opacity="0.8"/>
  <path d="M128 216l-10 18" stroke="#e9d5c4" stroke-width="6" stroke-linecap="round"/>
</svg>